<?xml version="1.0" encoding="UTF-8" standalone="no"?>
<!-- Created with Inkscape (http://www.inkscape.org/) -->

<svg
   version="1.1"
   id="svg2"
   width="1118.28"
   height="1014.68"
   viewBox="0 0 1118.28 1014.68"
   sodipodi:docname="Vector File.eps"
   xmlns:inkscape="http://www.inkscape.org/namespaces/inkscape"
   xmlns:sodipodi="http://sodipodi.sourceforge.net/DTD/sodipodi-0.dtd"
   xmlns="http://www.w3.org/2000/svg"
   xmlns:svg="http://www.w3.org/2000/svg">
  <defs
     id="defs6" />
  <sodipodi:namedview
     id="namedview4"
     pagecolor="#ffffff"
     bordercolor="#000000"
     borderopacity="0.25"
     inkscape:showpageshadow="2"
     inkscape:pageopacity="0.0"
     inkscape:pagecheckerboard="0"
     inkscape:deskcolor="#d1d1d1" />
  <g
     id="g8"
     inkscape:groupmode="layer"
     inkscape:label="ink_ext_XXXXXX"
     transform="matrix(1.3333333,0,0,-1.3333333,0,1014.68)">
    <g
       id="g10"
       transform="scale(0.1)">
      <path
         d="M 1623.56,1584.66 C 1730,1517.65 1784.48,1418.4 1787.01,1286.9 v -22.55 h -388.89 v 7.52 c 0,37.57 -13.79,68.87 -41.33,93.92 -27.56,25.05 -69.51,37.58 -125.86,37.58 -55.13,0 -97.4,-8.15 -126.81,-24.42 -29.45,-16.29 -44.15,-36.34 -44.15,-60.12 0,-33.82 20.01,-58.89 60.11,-75.14 40.07,-16.29 104.56,-33.21 193.5,-50.72 103.95,-21.31 189.42,-43.53 256.44,-66.7 66.99,-23.19 125.55,-61.06 175.66,-113.67 50.07,-52.588 75.76,-123.991 77.02,-214.159 0,-152.812 -51.66,-266.152 -154.98,-340.031 -103.33,-73.918 -241.42,-110.847 -414.25,-110.847 -201.66,0 -358.532,33.816 -470.611,101.449 -112.101,67.64 -168.132,187.23 -168.132,358.82 h 392.633 c 0,-65.133 16.91,-108.66 50.73,-130.57 33.81,-21.922 86.42,-32.871 157.81,-32.871 52.6,0 96.1,5.629 130.56,16.922 34.43,11.257 51.66,34.429 51.66,69.507 0,31.282 -19.11,54.762 -57.3,70.442 -38.21,15.648 -100.51,32.218 -186.92,49.789 -105.21,22.531 -192.267,46.031 -261.13,70.449 -68.899,24.41 -129.016,64.813 -180.356,121.16 -51.367,56.37 -77.027,132.74 -77.027,229.21 0,141.51 54.773,245.78 164.383,312.79 109.578,66.99 248.27,100.52 416.13,100.52 165.31,0 301.2,-33.53 407.66,-100.52"
         style="fill:#202d58;fill-opacity:1;fill-rule:nonzero;stroke:none"
         id="path12" />
      <path
         d="m 2396.61,767.449 c -50.73,-23.187 -76.09,-54.199 -76.09,-93 0,-62.636 42.57,-93.937 127.75,-93.937 48.84,0 91.73,13.16 128.69,39.457 36.93,26.312 55.42,58.851 55.42,97.691 v 84.539 c -106.47,0 -185.05,-11.597 -235.77,-34.75 z m 466.84,541.041 c 95.17,-50.72 142.78,-133.09 142.78,-247.04 V 674.449 c 0,-21.308 4.99,-38.828 15.03,-52.597 10.01,-13.801 25.04,-20.661 45.09,-20.661 h 67.63 v -216.05 c -3.76,-2.52 -13.47,-6.578 -29.12,-12.219 -15.67,-5.633 -37.89,-11.262 -66.69,-16.902 -28.83,-5.629 -62,-8.457 -99.57,-8.457 -72.65,0 -132.44,10.976 -179.41,32.886 -46.97,21.891 -79.23,52.281 -96.75,91.102 -47.62,-37.571 -100.83,-67.621 -159.69,-90.172 -58.89,-22.539 -127.75,-33.816 -206.66,-33.816 -232.94,0 -349.42,92.667 -349.42,278.039 0,96.437 25.97,170.019 77.96,220.738 51.95,50.742 126.81,85.492 224.5,104.281 97.69,18.789 225.44,28.18 383.25,28.18 v 48.829 c 0,38.81 -13.47,68.25 -40.39,88.3 -26.95,20.02 -61.71,30.06 -104.27,30.06 -38.84,0 -72.33,-6.89 -100.51,-20.66 -28.18,-13.8 -42.27,-35.69 -42.27,-65.75 v -7.52 h -368.21 c -1.27,6.26 -1.88,15.03 -1.88,26.31 0,93.93 44.76,168.43 134.32,223.56 89.53,55.1 217.6,82.65 384.19,82.65 151.52,0 274.9,-25.35 370.09,-76.09"
         style="fill:#202d58;fill-opacity:1;fill-rule:nonzero;stroke:none"
         id="path14" />
      <path
         d="m 4199.17,1288.77 c 57.59,-63.87 86.42,-155.92 86.42,-276.17 V 370.109 H 3911.73 V 967.52 c 0,42.57 -10.98,76.7 -32.87,102.38 -21.93,25.67 -52.93,38.53 -92.99,38.53 -46.36,0 -83.93,-15.03 -112.73,-45.09 -28.82,-30.06 -43.21,-67.02 -43.21,-110.848 V 370.109 h -373.85 v 991.941 h 306.22 l 24.43,-150.31 c 38.8,52.61 89.85,94.57 153.1,125.88 63.23,31.29 129.93,46.96 200.09,46.96 115.21,0 201.63,-31.93 259.25,-95.81"
         style="fill:#202d58;fill-opacity:1;fill-rule:nonzero;stroke:none"
         id="path16" />
      <path
         d="m 4522.29,370.109 v 991.941 h 373.85 V 370.109 Z m 0,1108.411 v 253.61 h 373.85 v -253.61 h -373.85"
         style="fill:#202d58;fill-opacity:1;fill-rule:nonzero;stroke:none"
         id="path18" />
      <path
         d="m 6280.7,486.582 c -111.49,-92.691 -269.92,-139.019 -475.3,-139.019 -205.43,0 -364.17,46.328 -476.24,139.019 -112.11,92.668 -168.15,227.32 -168.15,403.918 v 772.12 H 5576.2 V 896.133 c 0,-72.653 19.4,-130.57 58.24,-173.781 38.81,-43.2 95.16,-64.801 169.08,-64.801 73.88,0 130.56,21.879 170.01,65.738 39.46,43.832 59.18,101.461 59.18,172.844 V 1662.62 H 6447.9 V 890.5 c 0,-176.598 -55.74,-311.25 -167.2,-403.918"
         style="fill:#acc9ec;fill-opacity:1;fill-rule:nonzero;stroke:none"
         id="path20" />
      <path
         d="m 7112.93,1050.18 c -27.57,-38.83 -41.34,-89.559 -41.34,-152.168 V 836.02 c 0,-62.649 13.77,-113.668 41.34,-153.118 27.53,-39.441 68.86,-59.172 123.99,-59.172 107.7,0 161.56,64.493 161.56,193.5 v 99.571 c 0,127.749 -53.86,191.629 -161.56,191.629 -55.13,0 -96.46,-19.44 -123.99,-58.25 z m 550.45,202.9 c 72.62,-87.69 108.95,-217.31 108.95,-388.889 0,-170.339 -36.33,-299.019 -108.95,-386.062 -72.66,-87.059 -175.98,-130.566 -309.98,-130.566 -115.25,0 -207.92,37.578 -278.04,112.718 V 0 H 6701.5 v 1362.05 h 304.34 l 31.94,-140.91 c 72.62,108.96 177.83,163.44 315.62,163.44 134,0 237.32,-43.84 309.98,-131.5"
         style="fill:#acc9ec;fill-opacity:1;fill-rule:nonzero;stroke:none"
         id="path22" />
      <path
         d="m 2621.91,5608.54 c 0,-42.76 1.36,-85.34 4.42,-127.42 -23.25,1.01 -46.67,1.52 -70.25,1.52 -893,0 -1617.01,-723.83 -1617.01,-1616.84 0,-893 724.01,-1616.84 1617.01,-1616.84 h -811.9 c -893,0 -1617.004,723.84 -1617.004,1616.84 0,893.01 724.004,1616.84 1617.004,1616.84 23.59,0 47,-0.51 70.25,-1.52 -3.06,42.08 -4.41,84.66 -4.41,127.42 0,931.18 679.04,1703.71 1568.99,1849.64 99.26,16.28 201.4,24.77 305.41,24.77 9.84,0 19.85,0 29.7,-0.34 128.95,-2.04 254.68,-16.97 376,-43.95 -839.9,-185.62 -1468.21,-934.4 -1468.21,-1830.12"
         style="fill:#acc9ec;fill-opacity:1;fill-rule:nonzero;stroke:none"
         id="path24" />
      <path
         d="m 5386.68,2376.17 h 1543.54 c 336.6,0 659.96,142.5 887.15,390.95 203.28,221.91 315.18,509.97 315.18,811.2 0,8.22 0.01,16.44 -0.25,24.65 -9.6,447.08 -263.15,848.64 -661.77,1049.62 -103.58,52.34 -214.45,89.15 -329.61,109.46 -10.9,2.06 -20.33,3.51 -29.74,4.98 -53.54,8.39 -96.14,49.78 -105.78,103.1 -103.5,571.67 -601.01,986.6 -1182.98,986.6 -10.1,0 -20.21,-0.16 -30.32,-0.46 -8.2,-0.17 -15.41,-0.49 -22.47,-0.79 -72.29,-3.03 -144.12,-12.62 -213.6,-28.48 -33.79,-7.71 -69.25,-1.33 -98.19,17.7 -28.97,19.03 -48.92,49.03 -55.25,83.09 -6,32.2 -12.54,62.6 -20.01,92.94 -155.63,643.7 -673.62,1151.25 -1319.76,1293.61 -113.92,25.32 -231.81,39.09 -350.62,40.98 -0.8,0 -1.59,0.03 -2.39,0.05 -8.38,0.3 -16.85,0.26 -25.3,0.27 -95.61,0 -191.43,-7.77 -284.8,-23.09 -847.36,-138.94 -1462.36,-864.01 -1462.36,-1724.06 0,-41.16 1.38,-80.93 4.08,-118.21 2.63,-36.23 -10.34,-71.85 -35.65,-97.9 -25.31,-26.06 -60.47,-40.16 -96.85,-38.45 -21.22,0.93 -42.98,1.4 -64.67,1.4 -821.451,0 -1489.748,-668.22 -1489.748,-1489.57 0,-821.37 668.297,-1489.59 1489.748,-1489.59 H 3000.37 V 3700.65 H 2240.4 c -57.12,0 -107.24,38.06 -122.58,93.07 -15.34,55.01 7.84,113.51 56.7,143.07 l 1953.15,1181.62 c 40.5,24.51 91.24,24.51 131.73,0 L 6212.53,3936.79 c 48.88,-29.56 72.06,-88.06 56.72,-143.07 -15.36,-55.01 -65.47,-93.07 -122.59,-93.07 H 5386.68 Z M 6930.22,2121.66 H 5259.43 c -70.29,0 -127.26,56.98 -127.26,127.26 v 1578.99 c 0,70.28 56.97,127.26 127.26,127.26 h 431.05 L 4193.54,4860.8 2696.59,3955.17 h 431.04 c 70.28,0 127.26,-56.98 127.26,-127.26 V 2248.92 c 0,-70.28 -56.98,-127.26 -127.26,-127.26 H 1744.26 C 782.473,2121.66 0,2904.06 0,3865.76 c 0,941.15 749.363,1710.57 1682.84,1743.01 0.06,477.49 171.02,939.8 481.41,1301.84 307.02,358.12 731.15,597.16 1194.25,673.1 106.94,17.54 216.63,26.44 326.01,26.44 10.85,0 21.92,-0.02 32.83,-0.37 135.64,-2.22 270.37,-18.01 400.47,-46.94 C 4852.34,7401 5442.51,6826.98 5625.66,6098 c 44.1,5.96 88.61,9.9 133.22,11.76 8.8,0.39 17.89,0.75 26.77,0.94 11.49,0.35 24.11,0.54 36.77,0.54 675.24,0 1256.68,-461.19 1414.92,-1108.71 120.35,-25.71 237.53,-66.97 347.87,-122.73 482.78,-243.41 789.92,-729.96 801.48,-1269.74 0.34,-9.49 0.37,-20.61 0.37,-31.74 0,-365.04 -135.64,-714.16 -381.94,-983.03 -275.21,-300.97 -667.03,-473.63 -1074.9,-473.63"
         style="fill:#202d58;fill-opacity:1;fill-rule:nonzero;stroke:none"
         id="path26" />
      <path
         d="m 4405.55,3477.75 v -606 c 0,-117.2 -95,-212.1 -212.1,-212.1 -117.1,0 -212.1,94.9 -212.1,212.1 v 181.8 l 28.3,28.3 395.9,395.9"
         style="fill:#acc9ec;fill-opacity:1;fill-rule:nonzero;stroke:none"
         id="path28" />
      <path
         d="m 4405.55,3716.15 v -181.8 l -424.2,-424.2 v 606 c 0,117.1 95,212.1 212.1,212.1 117.1,0 212.1,-95 212.1,-212.1"
         style="fill:#202d58;fill-opacity:1;fill-rule:nonzero;stroke:none"
         id="path30" />
      <path
         d="m 4377.25,3506.05 -424.2,-424.2 h -181.8 c -117.1,0 -212.1,94.9 -212.1,212.1 0,117.1 95,212.1 212.1,212.1 h 606"
         style="fill:#202d58;fill-opacity:1;fill-rule:nonzero;stroke:none"
         id="path32" />
      <path
         d="m 4827.75,3293.95 c 0,-117.2 -95,-212.1 -212.1,-212.1 h -606 l 395.9,395.9 28.3,28.3 h 181.8 c 117.1,0 212.1,-95 212.1,-212.1"
         style="fill:#acc9ec;fill-opacity:1;fill-rule:nonzero;stroke:none"
         id="path34" />
    </g>
  </g>
</svg>
